<svg xmlns="http://www.w3.org/2000/svg" xmlns:xlink="http://www.w3.org/1999/xlink" version="1.1" style="" xml:space="preserve" width="512" height="512"><rect id="backgroundrect" width="100%" height="100%" x="0" y="0" fill="none" stroke="none"/> <g class="currentLayer" style=""><title>Layer 1</title><g id="svg_2" class="selected" fill="#ffffff" fill-opacity="1"><g style="opacity:0.4;" id="svg_3" fill="#ffffff" fill-opacity="1">
	<path d="M192,378.34212616729735 L91.36,478.98212616729734 c-6.224,6.272 -16.352,6.32 -22.624,0.09600000000000003 c-3.008,-2.992 -4.72,-7.056 -4.736,-11.296 v-89.44 H192 z" data-original="#FFDA68" class="active-path" data-old_color="#FFDA68" fill="#ffffff" id="svg_4" fill-opacity="1"/>
</g><g style="opacity:0.4;" id="svg_5" fill="#ffffff" fill-opacity="1">
	<path d="M485.28,50.662126167297366 L400,128.10212616729737 v116.32 l85.28,77.44 c6.5600000000000005,5.92 16.672,5.408 22.592,-1.1520000000000001 c2.608,-2.896 4.08,-6.6240000000000006 4.128,-10.528 V62.50212616729736 c-0.016000000000000004,-8.832 -7.2,-15.984 -16.032,-15.968 C492.016,46.550126167297364 488.208,48.022126167297365 485.28,50.662126167297366 z" data-original="#FFDA68" class="active-path" data-old_color="#FFDA68" fill="#ffffff" id="svg_6" fill-opacity="1"/>
</g><path d="M304,26.342126167297362 H64 c-35.344,0 -64,28.656 -64,64 v192 c0,35.344 28.656,64 64,64 h240 c35.344,0 64,-28.656 64,-64 v-192 C368,54.998126167297364 339.344,26.342126167297362 304,26.342126167297362 zM192,266.34212616729735 h-80 c-17.68,0 -32,-14.32 -32,-32 s14.32,-32 32,-32 h80 c17.68,0 32,14.32 32,32 S209.68,266.34212616729735 192,266.34212616729735 zM256,170.34212616729735 H112 c-17.68,0 -32,-14.32 -32,-32 s14.32,-32 32,-32 h144 c17.68,0 32,14.32 32,32 S273.68,170.34212616729735 256,170.34212616729735 z" data-original="#FFDA68" class="active-path" data-old_color="#FFDA68" fill="#ffffff" id="svg_7" fill-opacity="1"/></g></g></svg>