<svg width="260" height="85" viewBox="0 0 260 85" fill="none" xmlns="http://www.w3.org/2000/svg">
<path fill-rule="evenodd" clip-rule="evenodd" d="M29.1806 18.049C25.1994 18.049 20.4745 18.89 15.3121 24.8533V8.1648C15.3121 3.94898 11.8778 0.519531 7.65607 0.519531C3.43429 0.519531 0 3.94898 0 8.1648V62.5882C0 66.804 3.43429 70.2335 7.65607 70.2335C11.8778 70.2335 15.3121 66.804 15.3121 62.5882V41.4654C15.3121 35.3929 18.1996 32.0399 23.4604 32.0399C28.6118 32.0399 31.3242 35.2946 31.3242 41.4654V62.5882C31.3242 66.804 34.7585 70.2335 38.9803 70.2335C43.2021 70.2335 46.6364 66.804 46.6364 62.5882V37.0312C46.6254 25.1482 40.1069 18.049 29.1806 18.049ZM73.1482 18.4204C66.914 18.4204 61.9704 19.2286 57.1252 21.0417C54.6096 21.9809 52.9253 24.4056 52.9253 27.0705C52.9253 30.631 55.758 33.4161 59.3783 33.4161C60.122 33.4161 60.7454 33.3069 61.5985 33.0229C64.5406 32.1055 67.6468 31.6686 71.1139 31.6686C79.3387 31.6686 81.0887 36.2011 81.1105 40.0347C78.2559 39.1063 74.6576 38.2544 69.6374 38.2544C56.5564 38.2544 49.0535 44.2287 49.0535 54.659V54.8447C49.0535 64.2702 56.1408 70.6049 66.6843 70.6049C72.6232 70.6049 77.3809 68.8028 81.1762 65.1112C81.8214 67.8089 84.4136 70.2444 88.3947 70.2444C92.5837 70.2444 95.8649 67.0116 95.8649 62.8831V40.3514C95.8649 33.2632 94.0055 27.8023 90.3197 24.1325C86.5135 20.3427 80.7387 18.4204 73.1482 18.4204ZM70.928 59.6503C66.5859 59.6503 63.8953 57.597 63.8953 54.2877V54.102C63.8953 50.1592 67.1984 47.9093 72.9623 47.9093C75.9154 47.9093 78.8575 48.4882 81.2965 49.5367V51.6227C81.2965 56.341 77.0309 59.6503 70.928 59.6503ZM116.383 24.9844C120.342 20.3208 125.22 18.049 131.258 18.049C142.775 18.049 154.423 27.0377 154.423 44.2286V44.4143C154.423 52.3326 151.984 59.0387 147.379 63.8224C143.168 68.2021 137.448 70.6049 131.258 70.6049C125.297 70.6049 120.561 68.5734 116.46 64.2484V77.3546C116.46 81.5704 113.025 84.9998 108.804 84.9998C104.582 84.9998 101.148 81.5704 101.148 77.3546V26.0656C101.148 21.8498 104.582 18.4204 108.804 18.4204C112.664 18.4204 115.858 21.2819 116.383 24.9844ZM139.122 44.2286C139.122 36.8127 134.189 31.2098 127.648 31.2098C121.064 31.2098 116.274 36.6817 116.274 44.2286V44.4143C116.274 51.9613 121.053 57.4331 127.648 57.4331C134.298 57.4331 139.122 51.9613 139.122 44.4143V44.2286ZM188.066 18.049C182.028 18.049 177.15 20.3208 173.191 24.9844C172.666 21.2819 169.472 18.4204 165.612 18.4204C161.39 18.4204 157.956 21.8498 157.956 26.0656V77.3546C157.956 81.5704 161.39 84.9998 165.612 84.9998C169.833 84.9998 173.268 81.5704 173.268 77.3546V64.2484C177.369 68.5734 182.105 70.6049 188.066 70.6049C194.256 70.6049 199.976 68.2021 204.187 63.8224C208.792 59.0387 211.231 52.3326 211.231 44.4143V44.2286C211.231 27.0377 199.583 18.049 188.066 18.049ZM184.456 31.2098C190.997 31.2098 195.93 36.8127 195.93 44.2286V44.4143C195.93 51.9613 191.106 57.4331 184.456 57.4331C177.861 57.4331 173.082 51.9613 173.082 44.4143V44.2286C173.082 36.6817 177.872 31.2098 184.456 31.2098ZM245.388 24.1871C246.81 20.4082 249.347 18.4204 252.727 18.4204C256.806 18.4204 260.011 21.5331 260 25.4868C260 26.6336 259.628 28.2937 259.3 29.0583L242.03 70.4738C237.688 80.9696 233.16 84.694 224.727 84.694C221.752 84.694 219.467 84.3008 216.842 83.3615C215.037 82.7062 211.996 81.0024 211.996 76.9613C211.996 72.9858 215.135 70.6158 218.165 70.6158C219.368 70.6158 220.09 70.8233 220.67 71.0199C221.862 71.3912 222.518 71.5441 223.426 71.5441C225.723 71.5441 226.685 71.1728 227.844 68.9556L228.194 68.1256L211.395 29.2548C211.012 28.2937 210.607 26.8084 210.607 25.7708C210.607 21.5768 213.856 18.4095 218.165 18.4095C221.72 18.4095 224.126 20.2662 225.504 24.0888L235.621 51.2514L245.388 24.1871Z" fill="white"/>
</svg>
